<?xml version="1.0" standalone="no"?>
<!DOCTYPE svg PUBLIC "-//W3C//DTD SVG 1.1//EN" "http://www.w3.org/Graphics/SVG/1.1/DTD/svg11.dtd" >
<!--
2013-9-30: Created.
-->
<svg>
<metadata>
Created by iconfont
</metadata>
<defs>

<font id="iconfont" horiz-adv-x="1024" >
  <font-face
    font-family="iconfont"
    font-weight="500"
    font-stretch="normal"
    units-per-em="1024"
    ascent="896"
    descent="-128"
  />
    <missing-glyph />
    
    <glyph glyph-name="chaoshi" unicode="&#58946;" d="M511.996418 632.696288c106.705254 0 198.061938-66.713424 234.748489-160.589488l49.780777 0c-38.71065 120.236432-151.587464 207.503984-284.530288 207.503984-132.940778 0-245.840104-87.267553-284.533358-207.503984l49.786916 0C313.917084 565.982864 405.291165 632.696288 511.996418 632.696288zM929.380504 457.616784 94.629729 457.616784c-16.204054 0-29.343305-13.123902-29.343305-29.313629l0-100.967576c0-16.202007 13.138228-29.318746 29.343305-29.318746l24.540929 0 64.524572-331.09072c0 0 3.648087-46.486754 39.197744-46.486754 35.552727 0 214.19743 0 214.19743 0l152.219867 0c0 0 178.644703 0 214.19129 0 35.552727 0 39.201837 46.486754 39.201837 46.486754l64.524572 331.09072 22.151509 0c16.189727 0 29.324886 13.117762 29.324886 29.318746l0 100.967576C958.70539 444.492882 945.570231 457.616784 929.380504 457.616784zM387.880633 30.3537c0-17.271362-14.005992-31.280424-31.277354-31.280424-17.282618 0-31.276331 14.009062-31.276331 31.280424L325.326948 284.459049c0 17.271362 13.993712 31.277354 31.276331 31.277354 17.271362 0 31.277354-14.005992 31.277354-31.277354L387.880633 30.3537zM543.272749 30.3537c0-17.271362-14.005992-31.280424-31.276331-31.280424-17.288758 0-31.262004 14.009062-31.262004 31.280424L480.734414 284.459049c0 17.271362 13.973246 31.277354 31.262004 31.277354 17.271362 0 31.276331-14.005992 31.276331-31.277354L543.272749 30.3537zM698.666912 30.3537c0-17.271362-13.991666-31.280424-31.280424-31.280424-17.267269 0-31.258934 14.009062-31.258934 31.280424L636.127554 284.459049c0 17.271362 13.991666 31.277354 31.258934 31.277354 17.289782 0 31.280424-14.005992 31.280424-31.277354L698.666912 30.3537z"  horiz-adv-x="1024" />

    
    <glyph glyph-name="quanbufenleiff4a00" unicode="&#58931;" d="M513.90028 896C232.30688 896 2.631944 666.334273 2.631944 384.730641c0-281.603633 229.674936-511.279592 511.268336-511.279592 281.603633 0 511.279592 229.67596 511.279592 511.279592C1025.178849 666.334273 795.503912 896 513.90028 896zM317.762157 339.831035c-9.518794-9.645684-21.606087-14.467503-36.265972-14.467503-14.148231 0-25.914206 4.821819-35.300994 14.467503-9.391904 9.644661-14.081717 21.152762-14.081717 34.528398 0 13.889335 4.756327 25.589818 14.275121 35.109636 9.510608 9.512654 21.346167 14.274098 35.493375 14.274098 14.400988 0 26.362414-4.821819 35.880185-14.46648 9.511631-9.645684 14.274098-21.285792 14.274098-34.917254C332.036255 360.98482 327.274812 349.477742 317.762157 339.831035zM554.724057 339.831035c-9.518794-9.645684-21.605064-14.467503-36.264948-14.467503-14.148231 0-25.915229 4.821819-35.303041 14.467503-9.391904 9.644661-14.081717 21.152762-14.081717 34.528398 0 13.889335 4.755304 25.589818 14.274098 35.109636 9.512654 9.512654 21.347191 14.274098 35.494399 14.274098 14.398942 0 26.362414-4.821819 35.880185-14.46648 9.511631-9.645684 14.274098-21.285792 14.274098-34.917254C568.998155 360.98482 564.235688 349.477742 554.724057 339.831035zM791.68698 339.831035c-9.519818-9.645684-21.605064-14.467503-36.265972-14.467503-14.148231 0-25.915229 4.821819-35.302017 14.467503-9.390881 9.644661-14.081717 21.152762-14.081717 34.528398 0 13.889335 4.755304 25.589818 14.274098 35.109636 9.512654 9.512654 21.347191 14.274098 35.496445 14.274098 14.399965 0 26.360368-4.821819 35.880185-14.46648 9.509585-9.645684 14.274098-21.285792 14.274098-34.917254C805.961078 360.98482 801.197588 349.477742 791.68698 339.831035z"  horiz-adv-x="1026" />

    
    <glyph glyph-name="jiazhuangjiancai" unicode="&#59032;" d="M512 891.163469c280.097364 0 507.163469-227.066105 507.163469-507.173503 0-280.08733-227.066105-507.153435-507.163469-507.153435S4.836531 103.902636 4.836531 383.989966C4.836531 664.097364 231.902636 891.163469 512 891.163469zM805.663733 388.595708c0 16.245527-6.291504 31.537795-17.7005 42.996962l-236.237452 237.712494c-22.868163 22.988574-62.72439 22.988574-85.582518 0.020069l-85.642724-85.973856c-23.580598-23.690975-23.610701-62.30295-0.020069-86.013993l236.217384-237.662322c11.449133-11.499304 26.631024-17.810877 42.846448-17.810877 16.145184 0 31.357178 6.331641 42.766173 17.790808l22.266105 22.366448 16.48635-16.55659c7.876923-7.91706 7.876923-20.750926 1.153944-27.614385l-60.456639-51.977658c-7.836786-7.937129-20.640549-7.896992-28.53754 0L498.403528 341.605096l0 0-2.016894 2.036962c-23.610701 23.690975-62.001921 23.731112-85.582518 0.060206l-6.07075-6.090818-38.732386 38.902969c-3.943479 3.963547-9.101107 5.940304-14.26877 5.940304-5.157629 0-10.315257-1.976756-14.278805-5.940304 0 0 0-0.020069-0.010034-0.020069L323.204704 362.175404l0 0-85.662793-85.953787c-23.590632-23.690975-23.610701-62.262812-0.020069-86.013993l71.323782-71.705086c11.780265-11.84047 27.293288-17.760706 42.786242-17.760706s30.985909 5.900167 42.826379 17.760706l85.612621 85.943753c0.020069 0.020069 0.020069 0.080274 0.030103 0.100343l14.208564 14.248702c3.802999 3.802999 5.920235 8.940559 5.920235 14.349045 0 5.34828-2.117237 10.525977-5.900167 14.328976l-61.0888 61.419931 6.060715 6.07075c7.876923 7.937129 20.660617 7.896992 28.527506-0.020069l0 0.020069 2.016894-2.036962 0-0.020069 154.829201-155.722254c11.930779-11.990985 27.654522-17.91122 43.217717-17.91122 15.151788 0 30.143028 5.649309 41.190789 16.83755l60.476707 51.967624c23.600666 23.690975 23.620735 62.30295 0.020069 86.034062l-16.48635 16.536521 34.849113 34.939422C799.332092 357.09805 805.663733 372.37025 805.663733 388.595708L805.663733 388.595708 805.663733 388.595708 805.663733 388.595708zM408.696913 190.107281c-0.020069-0.020069-0.020069-0.060206-0.040137-0.100343l-42.746105-42.866516c-7.856854-7.856854-20.700755-7.876923-28.567643 0l-71.29368 71.705086c-7.866889 7.896992-7.866889 20.750926 0 28.667986l42.826379 42.996962 0 0 42.836414 42.936756 99.821186-100.342969L408.696913 190.107281 408.696913 190.107281 408.696913 190.107281 408.696913 190.107281zM759.365488 374.266732l-85.622656-85.933719c-7.605997-7.666203-20.891406-7.666203-28.517472 0.020069L409.007976 525.985301c-7.866889 7.937129-7.866889 20.770995 0 28.688055l85.642724 85.953787c3.802999 3.843136 8.880353 5.940304 14.258736 5.940304s10.465772-2.097168 14.258736-5.920235l236.217384-237.692425c3.802999-3.823067 5.900167-8.92049 5.900167-14.328976C765.305791 383.227359 763.208623 378.129936 759.365488 374.266732L759.365488 374.266732 759.365488 374.266732 759.365488 374.266732zM523.619716 609.380343c-7.77658 8.037472-20.580343 8.137815-28.527506 0.311063-7.967232-7.856854-8.087643-20.680686-0.290995-28.667986L698.186379 372.470593c3.943479-4.033787 9.151279-6.07075 14.429319-6.07075 5.097423 0 10.174777 1.916551 14.108221 5.779755 7.957197 7.816717 8.077609 20.680686 0.270926 28.667986L523.619716 609.380343 523.619716 609.380343 523.619716 609.380343 523.619716 609.380343z"  horiz-adv-x="1024" />

    
    <glyph glyph-name="jinrixindan" unicode="&#58926;" d="M644.141 372.756c0 13.68-10.989 24.78-24.533 24.78s-24.533-11.1-24.533-24.78v-155.28l-149.451 170.76c-6.474 7.62-13.306 9.3-22.275 9.3-13.543 0-24.532-11.1-24.532-24.78v-231.24c0-13.68 10.989-24.78 24.532-24.78s24.533 11.1 24.533 24.78v155.82l146.718-167.46 3.148-3.78c6.712-7.2 12.771-9.36 21.859-9.36 13.543 0 24.532 11.1 24.532 24.78v231.24zM521.658 645.516c-31.66 0-57.262-25.92-57.262-57.96 0-31.98 25.601-57.96 57.262-57.96 31.601 0 57.203 25.98 57.203 57.96 0 32.040-25.601 57.96-57.203 57.96v0zM791.215 62.256c0-42.9-34.511-77.64-77.042-77.64h-385.090c-42.531 0-77.042 34.74-77.042 77.64v407.58c0 1.2 0.297 2.28 0.356 3.42-2.079 20.34 4.039 41.46 19.008 57.060l202.376 210.48c26.255 27.36 68.904 27.36 95.218 0l202.316-210.48c14.316-14.88 20.553-34.8 19.246-54.3 0.178-2.1 0.653-4.080 0.653-6.18v-407.58z"  horiz-adv-x="1024" />

    
    <glyph glyph-name="zuliaoanmo" unicode="&#59111;" d="M943.424 84.992l0.064 0.448L943.424 84.992 943.424 84.992 943.424 84.992zM848.192 351.488c-13.76-7.808-28.8-11.904-43.584-11.904-8.256 0-16.128 1.344-23.296 3.904-13.184 4.736-23.552 13.312-30.08 24.896-16 28.608-2.88 65.6 29.504 87.424-9.984-5.12-20.416-8.448-30.976-8.448-6.656 0-12.992 1.088-19.072 3.264l-3.84 1.536c-2.496 1.088-4.992 2.496-7.36 4.032-30.016 19.264-35.008 63.232-11.52 100.16-17.728-21.184-40.384-33.92-62.72-33.92-6.656 0-13.056 1.088-19.264 3.264-1.92 0.768-3.904 1.536-5.76 2.432C601.024 537.536 588.736 557.312 586.496 582.336 585.152 598.464 588.032 616.128 594.496 633.28 576.896 607.744 552.192 591.936 526.976 591.936c-6.528 0-13.12 1.152-19.328 3.328C468.736 609.152 453.056 661.888 472 715.328c15.744 44.032 49.408 73.6 84.032 73.6 6.656 0 13.248-1.152 19.392-3.328C614.4 771.712 630.144 718.976 611.072 665.664 610.624 664.64 610.112 663.616 609.6 662.528c18.624 26.88 44.608 43.52 70.272 43.52 8.704 0 17.024-1.92 24.768-5.568 35.52-17.472 44.544-68.992 20.864-117.312-3.904-7.936-8.448-15.104-13.376-21.696 15.936 21.76 39.296 35.456 62.656 35.456 10.752 0 20.992-2.944 29.76-8.512 30.08-19.456 35.008-63.744 11.2-100.8-6.912-11.008-16-19.712-25.728-26.432 12.416 6.464 25.984 10.24 39.68 10.24 24.192 0 44.544-10.56 54.656-28.224 9.088-16.128 9.152-35.968 0.128-54.528C877.12 373.632 864.256 360.448 848.192 351.488L848.192 351.488zM554.752 727.68c-4.48-1.408-17.408-10.624-25.344-32.96C521.536 672.448 525.696 657.216 528.32 653.184 532.736 654.656 545.728 663.872 553.6 686.144 561.472 708.416 557.312 723.712 554.752 727.68L554.752 727.68zM677.184 644.16c-4.864-2.304-14.784-9.344-22.912-25.856-8.32-16.832-7.488-29.184-6.4-34.24 4.096 2.112 14.656 9.024 22.848 26.112C678.848 626.752 678.4 639.04 677.184 644.16L677.184 644.16zM759.552 523.776c-3.456-5.248-4.672-9.984-5.12-13.312 2.816 1.792 6.592 4.928 9.92 10.24 3.52 5.312 4.736 10.048 5.248 13.376C766.656 532.16 762.88 528.96 759.552 523.776L759.552 523.776zM817.152 406.848c-3.328-1.856-5.632-3.84-7.488-5.632 2.496 0.576 5.376 1.6 8.832 3.456 3.264 1.792 5.632 3.776 7.424 5.632C823.232 409.664 820.224 408.64 817.152 406.848L817.152 406.848zM367.104 619.584c-1.664 0-3.52 0.064-5.248 0.192-7.36 0.512-14.656 1.984-21.632 4.48-46.528 16.576-76.032 74.304-71.68 140.288C270.72 799.168 282.176 831.616 300.736 855.808 321.6 882.944 351.36 897.536 379.84 895.872c7.232-0.448 14.528-1.984 21.568-4.48C448 874.752 477.44 817.152 473.216 751.104 468.288 676.16 422.72 619.584 367.104 619.584L367.104 619.584zM380.992 833.728C379.2 834.432 377.6 834.816 375.872 834.88l-1.28 0c-11.264 0-20.8-10.24-25.472-16.32C337.92 804.096 330.688 782.976 329.28 760.576c-2.56-40.768 14.208-72.576 31.36-78.72 1.792-0.576 3.456-1.024 5.184-1.088l0 0c20.288 0 43.712 30.528 46.528 74.432C414.912 795.904 398.144 827.712 380.992 833.728L380.992 833.728zM316.416 595.712c40.576 23.744 91.712 26.624 136.384 7.68l3.904-1.92L626.432 496.64c85.248-57.216 106.752-136.768 62.592-230.144-39.232-81.728-88-140.928-122.112-176.256-34.24-47.36-194.752-217.344-314.304-217.344L252.544-127.104c-7.168 0-14.08 0.768-20.736 1.856l-1.6 0.64c-69.056 24.896-97.28 65.408-108.928 95.104-14.592 37.312-11.904 79.936 7.296 117.184 24.704 48.064 58.688 69.376 88.576 88.256 26.752 16.96 49.728 31.168 65.024 64.64C297.152 273.28 282.816 321.6 268.8 368.448 255.552 413.056 241.792 458.816 249.28 500.864 256.256 540.352 280.64 574.912 316.416 595.712L316.416 595.712zM249.664 124.096c-26.688-16.768-49.792-31.168-67.008-64.512-11.072-21.504-12.736-46.016-4.544-66.88 9.984-25.6 35.2-46.464 72.896-60.096 2.048-0.768 4.544-1.152 7.296-1.152 49.024 0 175.296 110.4 244.032 180.48l-0.768 0.896L505.6 116.992c53.952 50.688 95.936 108.096 128.256 175.744 31.104 65.792 18.624 112.768-40.512 152.512L424 549.056C413.376 552.896 402.56 554.752 391.616 554.752c-15.808 0-31.232-4.096-44.544-11.904C326.848 531.136 313.088 511.936 309.312 490.24 304.448 462.592 315.456 425.408 327.168 386.176c17.28-57.792 35.072-117.568 10.368-171.072C314.688 165.12 280.064 143.36 249.664 124.096L249.664 124.096z"  horiz-adv-x="1024" />

    
    <glyph glyph-name="changyonglogo40" unicode="&#59170;" d="M517.741259 219.542414c-67.105351-3.637854-126.141932 36.759205-151.879106 91.833545-28.284183 60.517305-22.948665 120.268154 17.433044 173.59264 38.496779 50.837852 92.007507 71.033823 155.378813 63.46545 31.457456-3.75758 59.190077-16.672728 83.367733-37.193087 13.117762-11.140735 12.825097-16.119119-1.718131-24.465205-12.636808-7.255241-25.337061-14.395872-37.908378-21.765723-34.756595-20.361747-69.728084-40.370453-104.07945-61.402465-18.395976-11.256368-22.074761-29.214369-11.792581-47.845705 11.123338-20.149922 32.68747-24.840758 55.534827-11.631922 67.890226 39.261189 135.553279 78.912257 203.657376 117.804033 11.268648 6.433526 12.506848 12.979616 7.499811 23.883967-17.61724 38.361703-43.562145 69.872371-78.328973 93.444229-76.822666 52.086285-158.791539 60.431348-242.733347 20.86419-83.740216-39.473013-129.229247-108.788705-136.791479-200.144366-6.265704-75.734892 22.550599-139.857305 77.215616-192.627159 76.216869-73.571622 203.592908-85.148285 291.139823-26.002211 22.796192 15.395642 22.796192 15.395642 8.662287 38.911218-15.282055 25.418926-30.446429 30.143531-56.975643 17.425881C570.320779 225.659739 544.299125 217.842703 517.741259 219.542414zM748.179582 327.166597c-1.26276 18.193361-11.128455 32.971949-19.642362 48.208978-2.7793 4.976338-7.238868 3.061732-11.218506 0.791016-15.604396-8.933463-31.160697-17.943674-46.883797-26.660196-6.683213-3.705392-7.865131-8.192589-4.001127-14.705933 8.954953-15.093766 17.844413-30.227442 26.429952-45.528939 3.730974-6.647397 8.205892-8.16803 14.644535-4.097318 9.402137 5.942339 19.108197 11.453866 28.184923 17.853623C743.767086 308.727643 748.511133 316.736037 748.179582 327.166597z"  horiz-adv-x="1024" />

    
    <glyph glyph-name="jiehun" unicode="&#59107;" d="M601.670136 304.757997 436.08835 148.075232c-3.899571-3.799582-10.098889-3.799582-14.098449-0.099989L255.308236 305.057964c-24.99725-35.396106-39.9956-78.791333-39.9956-125.786164 0-119.386867 95.489496-216.076232 213.076562-216.076232 117.687054 0 212.976573 96.689364 212.976573 216.076232C641.36577 226.066653 626.567398 269.36189 601.670136 304.757997L601.670136 304.757997zM305.102759 486.438012 170.517563 486.438012 417.190429 190.670546 305.102759 486.438012zM817.346412 508.935537 667.662877 367.151133c39.695633-51.994281 63.493016-117.08712 63.493016-187.979322 0-169.681335-135.585086-307.166212-302.766696-307.166212S125.622502 9.590465 125.622502 179.171811c0 70.992191 23.797382 136.085031 63.692994 188.079311L39.331993 508.63557c-4.699483 4.399516-4.399516 11.898691 0.499945 15.798262L299.00343 733.110878c3.099659 2.599714 6.99923 3.99956 10.99879 3.99956l237.873834 0c3.99956 0 7.899131-1.399846 10.99879-3.799582l257.671656-205.977342C822.245873 522.63403 822.645829 514.034976 817.346412 508.935537L817.346412 508.935537zM897.63758 727.111538l-43.195249-81.391047-43.09526 81.391047-80.191179 43.695194 80.191179 43.895172 43.09526 81.291058L897.63758 814.601914l80.09119-43.895172L897.63758 727.111538z"  horiz-adv-x="1024" />

    
    <glyph glyph-name="maikefeng" unicode="&#58974;" d="M674.521 424.518c-52.682 0-102.004 20.716-138.877 58.331-36.365 37.094-56.106 86.125-55.588 138.065s21.231 100.568 58.321 136.933c36.573 35.853 84.916 55.597 136.121 55.597 52.682 0 102.004-20.713 138.877-58.331 36.365-37.094 56.102-86.125 55.588-138.068s-21.227-100.568-58.321-136.933c-36.573-35.85-84.913-55.594-136.121-55.594zM674.499 768.683c-39.421 0-76.636-15.198-104.788-42.8-28.558-27.992-44.501-65.431-44.897-105.418-0.4-39.987 14.798-77.733 42.794-106.287 28.388-28.961 66.358-44.907 106.917-44.907 39.421 0 76.636 15.198 104.788 42.8 28.555 27.992 44.501 65.431 44.897 105.418 0.4 39.987-14.798 77.733-42.794 106.291-28.388 28.958-66.358 44.904-106.917 44.904zM825.46 477.477c15.128 14.83 15.371 39.121 0.54 54.248l-235.708 240.445c-14.83 15.128-39.121 15.371-54.251 0.54l-12.481-12.235c-15.131-14.83-15.371-39.121-0.54-54.248l235.711-240.445c14.83-15.131 39.121-15.371 54.251-0.54l12.478 12.235zM786.128 431.899c-0.059-0-0.128-0-0.197-0-16.924 0-32.218 6.975-43.166 18.207l-235.723 240.458c-23.446 23.919-23.062 62.455 0.857 85.898l12.478 12.235c10.898 10.738 25.869 17.369 42.389 17.369 0.047 0 0.094-0 0.141-0 16.447 0 31.853-6.471 43.368-18.219l235.708-240.445c10.739-10.89 17.37-25.854 17.37-42.366 0-0.267-0.002-0.534-0.005-0.8-0.126-16.808-7.136-31.995-18.354-42.866l-12.342-12.1c-10.898-10.738-25.868-17.369-42.387-17.369-0.047 0-0.095 0-0.142 0zM562.895 761.305c-4.207 0-8.184-1.624-11.189-4.572l-12.478-12.235c-2.957-2.906-4.79-6.948-4.79-11.418 0-4.357 1.741-8.308 4.566-11.193l235.705-240.439c2.885-2.96 6.911-4.795 11.366-4.795 0.018 0 0.036 0 0.053 0 0.007-0 0.018-0 0.029-0 4.348 0 8.289 1.745 11.159 4.574l12.479 12.233c3.047 2.989 4.751 6.985 4.792 11.256s-1.579 8.299-4.568 11.349l-235.708 240.445c-2.885 2.96-6.911 4.795-11.366 4.795-0.018 0-0.036-0-0.053-0zM268.431 106.896c-0.007-0-0.016-0-0.025-0-6.252 0-11.903 2.569-15.956 6.71l-91.608 93.449c-3.956 4.034-6.398 9.565-6.398 15.667 0 5.989 2.352 11.428 6.183 15.444l322.489 338.514c4.070 4.177 9.749 6.768 16.034 6.768 12.359 0 22.378-10.019 22.378-22.378 0-5.903-2.286-11.273-6.021-15.271l-307.565-322.858 61.326-62.56 328.923 301.097c3.967 3.64 9.278 5.872 15.11 5.872 6.527 0 12.402-2.794 16.492-7.252 3.655-3.983 5.886-9.294 5.886-15.127 0-6.527-2.794-12.402-7.252-16.492l-344.889-315.712c-3.956-3.639-9.256-5.87-15.078-5.87-0.011 0-0.021 0-0.032 0zM418.644 345.771c-0.001-0-0.002-0-0.003-0-12.359 0-22.378 10.019-22.378 22.378 0 6.258 2.569 11.917 6.71 15.978l72.337 70.911c4.033 3.956 9.564 6.397 15.665 6.397 12.359 0 22.378-10.019 22.378-22.378 0-6.258-2.569-11.917-6.71-15.978l-72.337-70.911c-4.022-3.955-9.543-6.397-15.635-6.397-0.009 0-0.019 0-0.028 0zM290.295-49.88c-0.46 0-0.918 0-1.378 0.006-35.997 0.358-69.702 14.715-94.903 40.422-52.023 53.069-51.176 138.57 1.893 190.593 4.033 3.957 9.565 6.399 15.666 6.399 6.257 0 11.915-2.568 15.976-6.708 3.96-4.037 6.402-9.568 6.402-15.67 0-6.257-2.568-11.915-6.708-15.976-35.451-34.754-36.017-91.86-1.27-127.304 16.835-17.171 39.344-26.758 63.388-26.998 24.060-0.256 46.742 8.9 63.912 25.732l236.827 232.159c4.033 3.958 9.564 6.401 15.667 6.401 6.258 0 11.916-2.569 15.976-6.711 3.96-4.037 6.402-9.568 6.402-15.67 0-6.257-2.568-11.915-6.708-15.976l-236.83-232.163c-25.38-24.881-58.829-38.535-94.312-38.535zM763.865 53.718c-0.010-0-0.021-0-0.032-0-6.248 0-11.896 2.569-15.945 6.709-3.961 4.037-6.403 9.569-6.403 15.671 0 6.257 2.568 11.915 6.708 15.976 35.451 34.754 36.020 91.86 1.27 127.307-34.747 35.447-91.853 36.016-127.301 1.266-4.033-3.956-9.564-6.397-15.665-6.397-12.359 0-22.378 10.019-22.378 22.378 0 6.258 2.569 11.917 6.71 15.978 53.075 52.024 138.573 51.176 190.597-1.892 25.201-25.709 38.884-59.693 38.526-95.69-0.358-36-14.715-69.702-40.422-94.906-4.022-3.957-9.544-6.4-15.637-6.4-0.010 0-0.020 0-0.030 0z"  horiz-adv-x="1024" />

    
    <glyph glyph-name="qichefuwu" unicode="&#58625;" d="M498.24 382.336h-25.728l-11.008-33.024h-15.744l-11.008 33.024h-25.728l11.008-33.024h-27.264v-22.016h49.856v-22.016h-49.856v-22.080h49.856v-55.488h22.016v55.552h49.856v22.080h-49.856v21.952h49.856v22.016h-27.264l11.008 33.024zM344.64 420.544h214.272v161.28h-214.272v-161.28zM593.28 402.496h42.56v91.072l-42.56 22.784v-113.856zM512 832c-247.424 0-448-200.576-448-448s200.576-448 448-448 448 200.576 448 448-200.576 448-448 448zM753.536 211.584c0-32.448-26.496-58.944-58.944-58.944s-58.816 26.368-58.816 58.944v165.312h-42.496v-186.112h30.72v-35.392h-340.736v35.328h30.72v406.528c0 9.984 8.128 18.112 18.112 18.112h243.136c9.92 0 17.984-8.128 17.984-18.112v-51.84l68.032-36.608v-106.304h33.344c32.448 0 58.944-26.368 58.944-58.88v-132.032zM694.656 376.896h-33.344v-165.312c0-18.304 14.976-33.28 33.344-33.28s33.28 14.912 33.28 33.28v132.032c-0.064 18.368-14.976 33.28-33.28 33.28z"  horiz-adv-x="1024" />

    
    <glyph glyph-name="chuanxiangcai" unicode="&#58971;" d="M954.315 460.934c-2.707 4.648-7.353 8.745-12.036 11.547-10.479 6.27-20.083 0.948-20.612-11.214-0.576-13.256-6.732-22.043-19.248-26.18-6.151-2.034-12.385-4.353-18.751-5.105-22.819-2.695-45.715-4.733-68.573-7.102-18.274-1.894-36.55-4.283-53.241-12.467-13.706-6.721-27.687-7.842-42.323-4.956-19.246 3.796-37.982 3.324-56.227-5.149-10.15-4.713-16.517-11.105-14.7-23.155-6.845 2.479-13.273 5.227-19.94 7.149-26.511 7.644-51.365 5.348-74.812-10.818-26.204-18.068-53.657-34.175-82.519-47.774-47.847-22.544-98.301-35.128-150.825-40.132-46.307-4.411-92.601-3.914-138.765 1.101-31.945 3.471-63.73 8.424-95.574 12.807-8.254 1.136-15.974-2.488-19.723-9.664-3.746-7.169-2.542-15.212 2.977-21.285 7.172-7.892 14.313-15.816 21.323-23.852 25.263-28.958 52.144-56.178 82.939-79.392 36.413-27.449 77.405-45.502 120.496-59.182 74.898-23.778 151.195-33.14 229.334-20.476 48.867 7.92 94.132 25.155 134.654 54.024 22.562 16.074 42.4 35.029 59.318 56.955 14.462 18.743 19.015 40.325 17.194 63.669 0.596-0.234 1.108-0.328 1.492-0.601 10.647-7.559 20.266-5.551 25.851 6.044 4.252 8.827 8.477 17.826 11.214 27.187 4.102 14.032 6.973 28.429 10.205 42.707 2.461 10.87 8.172 18.893 19.099 22.378 14.734 4.699 29.39 9.732 44.326 13.693 24.134 6.4 48.532 11.798 72.693 18.101 14.019 3.657 25.612 11.378 33.03 24.18 8.842 15.262 10.9 31.203 1.724 46.962zM708.311 235.325c-1.602-9.37-6.015-17.563-11.955-24.987-38.476-48.089-88.27-78.396-147.517-93.718-51.575-13.338-103.772-14.335-156.309-7.206-55.556 7.539-108.697 23.195-158.963 48.116-31.658 15.696-59.338 37.111-84.34 61.846-15.274 15.111-29.432 31.349-44.076 47.095-1.099 1.182-2.082 2.471-3.99 4.751 15.687-2.14 29.844-4.221 44.04-5.983 63.716-7.905 127.523-10.668 191.513-3.28 78.528 9.067 149.915 37.222 215.707 80.42 4.876 3.201 10.016 6.049 14.638 9.578 18.454 14.092 38.503 14.304 59.249 6.781 28.123-10.197 49.423-29.369 66.61-53.166 15.162-20.99 19.742-44.803 15.393-70.247z m148.74 165.225c-16.485-4.564-33.013-8.979-49.431-13.772-5.726-1.672-11.174-4.292-16.761-6.45-19.205-7.42-28.393-22.641-32.52-41.781-2.447-11.35-4.822-22.715-7.862-34.258-14.468 32.604-39.088 55.836-68.049 76.07 7.598 2.822 14.729 2.949 21.951 1.951 14.337-1.982 28.637-5.225 43.191-2.468 6.009 1.138 12.276 2.294 17.69 4.944 19.144 9.372 39.681 12.158 60.475 13.993 10.434 0.92 20.901 1.467 31.353 2.182l-0.037-0.411zM316.549 509.284c4.763-21.43 11.365-42.467 15.716-63.968 3.402-16.811 1.538-33.549-7.987-48.65-6.93-10.986-1.638-20.858 11.392-21.315 1.828-0.064 3.678-0.054 5.493 0.147 34.067 3.759 72.18 30.93 64.381 83.078-2.751 18.394-9.918 35.161-18.675 51.366-15.16 28.052-8.888 58.35 18.815 84.709-0.434-20.263 3.437-39.797 7.812-59.293 6.448-28.737 13.714-57.349 18.655-86.35 5.088-29.868 1.495-58.776-16.876-84.467-5.287-7.394-1.468-16.464 7.302-18.929 2.367-0.665 4.938-1.025 7.388-0.917 29.576 1.311 54.498 13.377 74.889 34.29 24.569 25.198 30.324 56.123 24.798 89.831-3.761 22.942-12.842 43.983-23.499 64.463-15.663 30.099-15.606 60.314-0.135 90.514 7.682 14.996 18.132 27.881 29.962 39.757 4.537 4.555 5.504 10.065 3.029 15.09-2.356 4.784-6.971 7.412-12.794 6.863-19.785-1.865-39.345-5.046-58.141-11.703-32.043-11.348-55.461-30.813-61.414-67.626-3.831 6.985-9.2 9.306-15.632 7.766-14.043-3.361-28.476-5.904-41.839-11.116-24.165-9.425-38.6-27.525-38.38-54.176 0.109-13.149 2.866-26.434 5.74-39.364z m115.17 94.367c2.449 16.408 11.061 28.662 25.051 37.249 11.733 7.202 24.557 11.511 38.603 14.428-3.811-6.47-7.49-12.176-10.644-18.158-20.475-38.836-20.512-77.801-0.263-116.725 9.965-19.155 18.349-38.843 21.189-60.457 5.62-42.761-16.402-71.86-54.063-85.966-0.563-0.211-1.245-0.101-1.028-0.087 2.516 11.967 5.844 23.812 7.372 35.885 3.223 25.458-0.812 50.512-6.399 75.296-5.783 25.649-12.191 51.158-17.843 76.834-3.015 13.702-4.07 27.662-1.975 41.701z m-88.935-34.96c5.54 6.511 12.781 10.243 21.121 13.211-2.394-6.377-4.979-12.112-6.714-18.093-6.759-23.292-3.354-45.487 8.018-66.624 6.976-12.966 12.714-26.351 15.376-40.94 3.856-21.13-3.819-39.071-21.029-48.763-0.991-0.558-2.045-1.006-3.666-1.796 0.766 5.242 1.633 9.898 2.101 14.594 2.188 21.973-2.728 43.018-8.376 63.993-4.538 16.854-9.328 33.675-12.917 50.74-2.458 11.678-2.455 23.639 6.086 33.678zM217.047 419.538c5.091-29.864 1.522-58.781-16.874-84.461-5.481-7.651-1.231-17.708 8.156-19.157 6.468-0.998 13.349-1.013 19.821-0.014 42.973 6.632 87.673 37.956 88.013 98.43-0.558 6.3-0.866 12.635-1.719 18.895-3.156 23.171-10.694 45.031-21.263 65.746-18.114 35.503-18.661 70.452 3.174 104.353 7.251 11.257 16.689 21.122 25.302 31.478 3.579 4.304 4.511 8.821 2.329 13.886-2.125 4.933-6.821 7.639-12.53 7.307-2.823-0.164-5.633-0.591-8.444-0.941-21.726-2.707-43.121-6.806-63.11-16.188-32.439-15.225-49.159-40.541-49.267-76.702-0.057-19.172 3.609-37.733 7.741-56.291 6.401-28.746 13.728-57.342 18.671-86.341z m-0.737 152.739c2.178 18.233 11.861 31.471 27.667 40.412 11.205 6.339 23.227 10.404 35.97 12.966-4.661-8.468-9.624-16.368-13.523-24.761-17.273-37.183-14.829-73.941 3.005-110.26 10.7-21.79 19.193-44.291 21.049-68.797 3.107-41.044-19.164-67.79-54.959-78.783-0.416-0.128-0.919 0.029-0.999 0.033 2.487 9.845 5.505 19.511 7.311 29.399 4.194 22.963 2.185 45.926-2.561 68.512-5.747 27.352-12.731 54.442-18.897 81.709-3.685 16.295-6.067 32.795-4.063 49.57z"  horiz-adv-x="1024" />

    
    <glyph glyph-name="daodianziti" unicode="&#58955;" d="M706.966768 576.510266a15.743287 15.743287 0 0 0-0.643026 4.486728c0 2.268652-5.895604 4.920229-13.49631 4.920229H337.696747c-7.600706 0-13.503535-2.651577-13.503535-4.920229 0-1.531701-0.21675-3.041727-0.65025-4.515628l-51.796063-177.034305a16.530812 16.530812 0 0 0-1.011501-2.557652c0.4913-1.538926 0.751401-3.164552 0.751401-4.840753 0-30.597897 20.87304-55.473591 46.521809-55.473591 25.655994 0 46.521809 24.882918 46.521809 55.473591a16.075637 16.075637 0 0 0 32.136824 0c0-31.089198 21.487166-56.355041 47.901785-56.355041 26.400169 0 47.88011 25.265844 47.88011 56.355041a16.068412 16.068412 0 1 0 32.129598 0c0-30.092147 21.494391-54.570465 47.88011-54.570465 26.421844 0 47.89456 24.485543 47.89456 54.570465 0 8.865081 7.196105 16.068412 16.068412 16.068412 6.30743 0 11.776759-3.648628 14.384986-8.951782a16.068412 16.068412 0 0 0 10.042757-14.883511c0-27.592295 21.805066-50.033162 48.617061-50.033161 26.84812 0 48.674861 22.433641 48.67486 50.033161 0 3.374077 1.062076 6.502505 2.839427 9.096282a15.591561 15.591561 0 0 0-2.189176 4.595103L706.966768 576.510266zM639.058943 344.045721c-14.341636-23.307867-38.856078-38.697128-66.614549-38.697129-25.887194 0-48.934961 13.39516-63.572821 34.130925-14.580061-21.776166-37.981853-35.944401-64.316997-35.944401-26.140069 0-49.397361 13.937035-64.013547 35.445876-11.914034-17.376138-29.535822-29.673097-49.729712-33.350624 3.280152-2.940577 5.346504-7.196105 5.346504-11.935709v-166.305172c0-1.221026 0.21675-2.442052 0.606901-3.518578l49.549086 64.244748h253.857786l54.14419-63.883497a11.054258 11.054258 0 0 1 0.4913 3.164552V293.687434c0 3.453553 1.098201 6.66868 2.976702 9.276907-25.208043 3.735328-46.687984 19.363014-58.724843 41.08138z m-151.161561-59.107769l-2.059126 1.676202 3.359627 0.04335-1.300501-1.719552zM511.5954 838.199958C252.990785 838.199958 43.350032 628.559204 43.350032 369.95459c0-258.590164 209.640754-468.238143 468.245368-468.238143 258.597389 0 468.245368 209.647979 468.245368 468.238143C979.833543 628.559204 770.192789 838.199958 511.5954 838.199958z m212.06113-534.809342c2.044676-2.687702 3.272927-6.076229 3.272927-9.703182v-166.305172c0-22.939392-18.149213-41.637705-40.467254-41.637705h-341.959501c-22.318041 0-40.481705 18.698314-40.481704 41.637705V293.687434c0 4.443378 1.813476 8.467706 4.739603 11.379383-39.029479 5.108079-69.417851 42.143456-69.417851 86.974614 0 2.550427 0.59245 4.927454 1.647302 7.066055a15.981712 15.981712 0 0 0-0.101151 9.356382l51.254188 175.155803c1.502801 20.10719 20.19389 34.42715 45.539208 34.42715h355.130685c25.359769 0 44.050857-14.327185 45.546434-34.448825l51.254187-176.665829a15.902237 15.902237 0 0 0-2.174726-13.55411c1.762901-2.593777 2.839427-5.722204 2.839427-9.096282 0.007225-40.395005-28.834996-74.049079-66.621774-80.891159z"  horiz-adv-x="1024" />

    
    <glyph glyph-name="drink" unicode="&#58886;" d="M8.087 379.018c-3.11 282.425 220.218 513.84 498.91 516.95 278.072 3.11 506.376-223.95 508.864-506.997 3.11-282.426-220.217-514.462-498.91-516.95-278.070-2.49-505.753 223.95-508.864 506.997M256.298 51.802c0-14.43 114.47-26.127 255.676-26.127s255.676 11.697 255.676 26.127c0 14.43-114.47 26.127-255.676 26.127-141.206 0-255.676-11.697-255.676-26.127zM166.719 476.063c0-69.4 56.26-125.66 125.661-125.66s125.66 56.26 125.66 125.66c0 0 0 0 0 0 0 69.4-56.26 125.661-125.661 125.661-69.4 0-125.661-56.26-125.661-125.661 0-0 0-0 0-0zM322.24 578.084c0.621 2.488 0.621 4.355-0.623 6.843-1.244 1.866-3.11 3.11-5.599 3.733-7.465 1.866-15.552 2.488-24.26 2.488-9.332 0-18.663-1.244-27.372-3.11-2.489-0.623-4.355-1.867-5.6-4.355-1.243-1.866-1.243-4.355-0.621-6.843l33.592-98.29 30.482 99.534zM393.157 504.056c2.488 0.622 4.354 1.867 4.976 4.355 1.245 1.866 1.245 4.354 0.622 6.843-2.488 7.465-5.598 14.93-9.953 21.773-4.977 8.087-10.575 15.552-16.796 21.773-1.866 1.866-3.733 2.488-6.221 2.488s-4.355-1.244-6.22-3.11l-66.565-79.628 100.156 25.505zM365.785 405.145c1.866-1.866 3.733-2.488 6.22-2.488s4.355 1.244 6.222 3.11c4.976 6.221 9.953 12.442 13.686 19.907 4.354 8.087 8.087 16.796 9.953 25.505 0.622 2.489 0 4.355-1.244 6.843-1.244 1.866-3.11 3.11-5.6 3.733l-102.642 17.418 73.406-74.028zM266.874 377.774c-0.622-2.489 0-4.355 1.244-6.843 1.244-1.867 3.11-3.11 5.599-3.733 7.306-1.187 15.728-1.866 24.308-1.866 9.284 0.622 18.616 1.866 27.325 4.354 2.488 0.623 4.354 2.489 4.976 4.355 1.244 1.866 1.244 4.355 0 6.843l-37.947 97.045-25.505-100.155zM192.846 449.313c-2.488-0.622-4.355-2.488-4.977-4.355-1.244-1.866-1.244-4.354-0.622-6.842 3.11-7.465 6.221-14.93 11.198-21.773 4.976-8.087 11.197-14.93 17.418-21.151 1.866-1.866 3.733-2.489 6.22-2.489s4.356 1.245 5.6 3.11l64.074 82.116-98.911-28.616zM216.486 548.846c-1.867 1.867-3.733 2.489-6.222 2.489s-4.354-1.245-5.598-3.11c-4.977-6.222-9.332-13.065-13.064-20.53-4.355-8.709-6.843-17.418-9.331-26.127-0.622-2.488 0-4.355 1.244-6.843 1.244-1.866 3.732-3.11 5.599-3.732l103.265-13.064-75.894 70.917zM296.112 470.464l80.248-406.842c1.245-6.843 7.465-11.82 14.308-11.82h127.527v418.662h-222.083zM518.817 470.464v-418.662h127.527c6.843 0 13.064 4.977 14.308 11.82l80.249 406.842h-222.084zM341.524 326.14l51.010-258.164h255.677l51.010 258.165zM520.684 326.14h-179.16l51.010-258.164h128.15zM469.673 202.346l18.662-11.197 79.627 134.992h-25.505zM390.668 251.49c0-0 0-0 0-0 0-19.927 16.154-36.081 36.081-36.081 19.927 0 36.081 16.154 36.081 36.081 0 0 0 0 0 0 0 0 0 0 0 0 0 19.927-16.154 36.081-36.081 36.081-19.927 0-36.081-16.154-36.081-36.081 0-0 0-0 0-0zM552.409 191.149c0-0 0-0 0-0 0-13.056 10.584-23.64 23.64-23.64 13.056 0 23.64 10.584 23.64 23.64 0 0 0 0 0 0 0 0 0 0 0 0 0 13.056-10.584 23.64-23.64 23.64-13.056 0-23.64-10.584-23.64-23.64 0-0 0-0 0-0zM514.463 119.61c0-8.589 6.963-15.552 15.552-15.552s15.552 6.963 15.552 15.552c0 8.589-6.963 15.552-15.552 15.552-8.589 0-15.552-6.963-15.552-15.552zM338.413 326.763c0-0 0-0 0-0 0-7.215 81.327-13.064 181.649-13.064 100.322 0 181.649 5.849 181.649 13.064 0 0 0 0 0 0 0 0 0 0 0 0 0 7.215-81.327 13.064-181.649 13.064-100.322 0-181.649-5.849-181.649-13.064 0-0 0-0 0-0zM876.515 593.636l-3.733 21.151-177.915-30.482-152.41-258.164h25.505l140.59 238.257zM292.38 471.086c-0-0.013-0-0.028-0-0.043 0-11.338 101.38-20.529 226.438-20.529 125.058 0 226.438 9.191 226.438 20.529 0 0.015-0 0.030-0.001 0.045 0 11.336-101.38 20.527-226.438 20.527-125.058 0-226.438-9.191-226.438-20.529zM321.617 473.574c0-6.528 88.289-11.82 197.2-11.82s197.2 5.292 197.2 11.82c0 0 0 0 0 0 0 6.528-88.289 11.82-197.2 11.82-108.911 0-197.2-5.292-197.2-11.82zM649.455 464.243l14.308 24.883h-24.884l-16.174-26.126z"  horiz-adv-x="1024" />

    
    <glyph glyph-name="redian_jiehunyuyue" unicode="&#58671;" d="M512 888.567C233.341 888.567 7.433 662.659 7.433 384c0-278.673 225.908-504.567 504.567-504.567 278.658 0 504.567 225.895 504.567 504.567C1016.568 662.659 790.658 888.567 512 888.567z m-45.659-598.463l-14.673-9.702-4.448 3.407-3.737 2.054-6.405 4.241c-30.81 20.367-59.607 45.183-83.246 71.748-10.183 11.498-19.736 24.42-26.032 33.139-29.797 41.035-34.423 91.411-11.798 128.332 15.563 25.54 40.705 41.103 68.97 42.704 32.343 1.854 54.188-11.176 66.89-22.652l0.438 0.534c12.017 10.875 33.506 23.953 66.149 22.112 28.266-1.595 53.422-17.171 69.013-42.725 17.766-29.01 19.217-65.747 3.682-101.026-7.569 3.668-17.191 5.681-28.236 6.352 13.646 27.688 14.017 57.623 0.506 79.687-10.688 17.506-27.647 28.155-46.55 29.236-28.703 1.684-44.854-11.894-53.298-23.186l-9.102-12.141-1.082-3.688-13.455 15.733c-8.5 11.374-24.719 24.938-53.367 23.282-18.888-1.067-35.847-11.709-46.509-29.195-16.548-27.005-12.414-64.891 10.553-96.536 5.913-8.199 14.878-20.326 24.294-30.948 21.489-24.17 47.729-46.879 75.91-65.738l0.52 0.355 0.945-0.604c11.415 7.625 22.639 16.043 33.465 24.994 1.245-9.951 3.121-20.695 7.556-30.387a410.753 410.753 0 0 0-26.953-19.382z m236.187-1.655c-5.215-7.213-12.168-16.574-19.654-25.006-17.753-19.972-39.487-38.693-62.839-54.146l-11.318-7.502-3.586 2.766-2.766 1.521-4.858 3.217c-23.254 15.371-44.977 34.094-62.838 54.146-7.542 8.526-14.469 17.848-19.655 25.02-22.557 31.084-26.061 69.244-8.91 97.221 11.826 19.374 30.893 31.181 52.34 32.392 24.31 1.362 40.706-8.24 50.383-16.862l0.098 0.089c9.129 8.253 25.402 18.177 50.177 16.773 21.448-1.211 40.542-13.023 52.368-32.411 17.118-27.974 13.614-66.134-8.942-97.218z"  horiz-adv-x="1024" />

    
    <glyph glyph-name="xingzhuangkaobei" unicode="&#59398;" d="M512 886.857143A502.857143 502.857143 0 1 0 9.142857 384 502.857143 502.857143 0 0 0 512 886.857143z m301.714286-217.289143a19.885714 19.885714 0 0 1-28.077715 0.987429c-0.329143-0.301714-0.612571-0.749714-0.914285-1.097143l-0.128 0.137143-88.082286-82.166858a164.964571 164.964571 0 0 1-218.249143-5.878857c-32.740571-30.491429-52.379429-83.254857-45.549714-119.707428-36.992 1.572571-89.901714-6.546286-122.596572-36.992-61.577143-57.371429-61.851429-160.978286-13.714285-227.410286l-87.451429-77.942857v-0.045714c-0.137143-0.128-0.32-0.210286-0.466286-0.347429-7.963429-7.515429-13.933714-15.149714-6.509714-23.158857a18.432 18.432 0 0 1 26.797714 1.408c0.137143 0.128 0.228571 0.310857 0.374858 0.438857l86.592 80.777143a164.717714 164.717714 0 0 1 219.209142 5.083428 136.539429 136.539429 0 0 1 45.412572 119.625143c35.657143-14.098286 211.2 31.369143 166.802286 209.371429h-0.091429c6.171429-16.566857-6.198857 31.387429-32 7.469714-5.686857-5.339429-0.228571-6.518857 1.874286-13.531428h-0.091429c55.954286-169.6-139.885714-177.563429-137.846857-177.636572a124.571429 124.571429 0 0 0-87.277714 39.780572c-47.122286 50.541714-43.885714 143.936 6.692571 191.149714a124.544 124.544 0 0 0 89.846857 33.536c69.403429-8.32 86.500571-23.405714 106.505143-48.064l109.924572 102.537143-0.091429 0.091428a8.758857 8.758857 0 0 1 1.252571 0.914286c7.963429 7.478857 11.529143 9.444571 7.753143 20.772571zM547.876571 301.577143a102.912 102.912 0 0 0-33.014857-96.32c-24.502857-22.857143-70.4-34.304-103.808-33.133714a124.635429 124.635429 0 0 0-87.332571 39.826285c-47.122286 50.596571-43.885714 143.936 6.692571 191.085715 47.451429 32.402286 63.149714 27.529143 96.630857 26.358857 0.630857 0 1.216 0 1.828572-0.109715-11.977143-23.936 70.747429-130.944 119.030857-127.725714z m0 0"  horiz-adv-x="1024" />

    
    <glyph glyph-name="xuexipeixun" unicode="&#59028;" d="M921.6 62.72000000000003c0-10.24-6.82666667-17.06666667-17.06666667-17.06666667H600.74666667l242.34666666 95.57333334c6.82666667 3.41333333 10.24 10.24 10.24 17.06666666V660.05333333h51.2c10.24 0 17.06666667-6.82666667 17.06666667-17.06666666v-580.26666667z m-802.13333333-17.06666667c-10.24 0-17.06666667 6.82666667-17.06666667 17.06666667v580.26666667c0 10.24 6.82666667 17.06666667 17.06666667 17.06666666h51.2v-501.76c0-6.82666667 3.41333333-13.65333333 10.24-17.06666666L426.66666667 42.24000000000001H119.46666667v3.41333333z m802.13333333 682.66666667h-68.26666667v44.37333333c0 13.65333333-13.65333333 20.48-23.89333333 17.06666667L682.66666667 728.3199999999999l-136.53333334-54.61333333-13.65333333-6.82666667v-621.22666667h-34.13333333V666.88l-20.48 6.82666667-136.53333334 54.61333333-146.77333333 61.44c-10.24 3.41333333-23.89333333-3.41333333-23.89333333-17.06666667v-44.37333333h-68.26666667c-37.54666667 0-68.26666667-30.72-68.26666667-68.26666667v-614.4c0-37.54666667 30.72-68.26666667 68.26666667-68.26666666h819.2c37.54666667 0 68.26666667 30.72 68.26666667 68.26666666v614.4c0 37.54666667-30.72 68.26666667-68.26666667 68.26666667z"  horiz-adv-x="1024" />

    
    <glyph glyph-name="chaoshi1" unicode="&#58951;" d="M512 384m-447.5 0a447.5 447.5 0 1 1 895 0 447.5 447.5 0 1 1-895 0ZM625.6 614.9H398.4c-60.6-16.7-109.2-46.4-136.4-83.2h500c-27.1 36.8-75.8 66.4-136.4 83.2zM262.5 510c-0.3-3-0.5-6.1-0.5-9.2 0-49.7 41.4-90.1 92.6-90.1 34.5 0 64.7 21.6 80.6 48.9 15.9-27.3 46-48.9 80.6-48.9 32 0 60.3 19.7 76.9 43.7 16.6-24.1 44.8-43.7 76.9-43.7 51.1 0 92.6 40.3 92.6 90.1 0 3.1-0.2 6.2-0.5 9.2H262.5zM696.1 260.5H327.9V353h-49.2v-161.8c0-21 20.9-38.1 46.4-38.1H699c25.5 0 46.4 17.2 46.4 38.1V353h-49.2v-92.5z"  horiz-adv-x="1024" />

    
    <glyph glyph-name="taopiaopiao" unicode="&#58904;" d="M256 896h512c141.4 0 256-114.6 256-256v-512c0-141.4-114.6-256-256-256H256C114.6-128 0-13.4 0 128V640C0 781.4 114.6 896 256 896zM607 680.7c-59.1 15.7-77.4 93.8-188 93.8 40.1-46 21.6-86.4-8.5-95.7-146.7-39.2-256.6-162.7-249.7-333.5 7.2-175.8 157.4-290.4 351.5-290.4s344.3 114.7 351.5 290.4c7.1 173.6-106.6 298.3-256.8 335.4M813.4 454c-0.1-0.8-0.9-5.3-5.3-6.4-0.2 0-0.4-0.2-0.6-0.3-5.7-2.5-14.3-9.7-17.4-29.9-1.1-9.1-3-18.7-5-28.9v-0.1c-5.7-29.1-14.7-53.4-26.9-71.9-17.1-26-40.3-40.5-67.1-41.9-19.6-1-36.1-1.1-50.4-0.2-41.4 2.6-65.1 13.3-81.9 37-22.6 31.9-32.9 89.8-46.3 89.8-13.4 0-23.8-58-46.4-89.9-16.8-23.7-40.5-34.4-81.9-37-14.3-0.9-30.8-0.8-50.4 0.2-26.9 1.4-50.1 15.9-67.1 41.9-12.2 18.6-21.3 42.8-26.9 71.9v0.1c-2 10.2-3.8 19.8-5 28.9-3.1 20.2-11.7 27.4-17.4 29.9l-0.6 0.3c-4.4 1.1-5.2 5.6-5.3 6.4-0.5 8.2-2.5 26.4-3.3 37.8-0.5 8.5 6.5 9.6 7.8 9.7 48.9 3.1 162.2 9.2 213.7-4.3 15.4-4 59.4-12.4 82.6-12.4 23.2 0 67.3 8.4 82.6 12.4 51.5 13.5 164.9 7.4 213.7 4.3 1.3-0.1 8.3-1.2 7.8-9.7-0.5-11.3-2.5-29.6-3-37.7M418.6 459c-1.1 0.2-2.3 0.5-3.7 0.7-18.3 3.4-55.8 8.2-84.7 6.3-12.7-0.8-23.8-2.9-31-6.9-17.6-10-19.1-25.6-16.1-46.7 0.9-6.1 2.1-12.7 3.4-19.7 7-37.6 23.7-77.5 58.3-79.5 15.5-0.9 28.3-1 38.9-0.3 32.5 2 44.2 10.9 52.3 22.9 46.4 68.7 28.2 113.8-17.4 123.2M723.5 459.1c-7.1 4-18.2 6.1-31 6.9-28.9 1.8-66.3-2.9-84.7-6.3-1.3-0.3-2.6-0.5-3.7-0.7-45.4-9.4-63.7-54.5-17.5-123.2 8.1-12 19.8-20.9 52.3-22.9 10.6-0.7 23.3-0.6 38.9 0.3 34.7 2 51.3 42 58.3 79.5 1.3 7 2.5 13.6 3.4 19.7 3 21.1 1.6 36.8-16 46.7"  horiz-adv-x="1024" />

    
    <glyph glyph-name="muyingqinzi" unicode="&#58675;" d="M337.993466 588.6800000000001c-53.4 7.8-98.5 53.5-93.6 109 4.7 55.5 52.2 97.1 106 92.6 53.8-4.3 97.5-53.3 88.8-108.5C428.593466 615.28 390.093466 580.98 337.993466 588.6800000000001M564.293466 315.17999999999995c-7.2-0.8-16.2 3.4-23.2 9-39.4 30.6-109.4 127.4-137.1 9-12.5-90.7 3-160.2 124.7-311.9 5.4-6.6 6.8-20.6-5-21.1-11.9-0.5-24.7 6.6-24.7 6.6-39.4 17.3-65 47.5-121.2 102.6-47.4 46.2-96.4 57.6-104.6 0.6-0.4-2.9-0.5-5.7-0.5-8.4 0.3-35.7 0.9-68.8 3.8-93.2 1.7-14.4-17.2-21.9-26.2-10.3-41.5 53.5-92.4 180.6-85.7 373.2 0 33.6-33.2 37.6-131.9-81.4-28.3-34.1-52.1-14.9-9.4 78.2 0 0 94.4 189.6 287.5 184.9 135.5-12.2 207.9-113.5 252.7-203.8 4.4-8.8 7.7-15.6 9.3-20.8C574.593466 322.38 570.593466 315.78 564.293466 315.17999999999995M806.093466 289.58000000000004c-40.9-8.2-94.5 15.2-103.5 57.3-8.9 42.3 30.4 87.3 71.3 95.5 40.9 8.2 81.2-19.3 90.2-61.6C872.993466 338.67999999999995 847.093466 297.78 806.093466 289.58000000000004M1021.393466 308.78c-7.3-14.4-23.8-31.1-77.2-67.2-16.8-11.4-34.3-37-37.6-56.7-3.9-24.8 3.9-48.9 12.7-83.4 6.4-26.1 12.4-65.7 2.9-90.7-3.7-9.5-16.1-11.3-20.2-1.9-11.9 26.9-26.1 63.3-69.7 71.2-44.1 3.4-60.7-26.6-61.4-68-0.3-12.6-13.6-16.7-23.8-6.6-11.9 12.2-22.1 29.6-30 76.3-9.9 59 5.2 86.4-19.5 105.2-17.4 13.4-93.5 23.6-127.7 61.5-6.3 7-2 17.8 7.4 19.1 40.9 5.2 112.2-15.7 230.9-1.8 88.3 11.5 158.5 52.9 196.8 66.6C1017.693466 336.78 1029.393466 324.78 1021.393466 308.78"  horiz-adv-x="1025" />

    
    <glyph glyph-name="weibiaoti-" unicode="&#58929;" d="M512.544 91.28c156.96 0 284.576 127.632 284.576 284.576h-85.008c0-110.08-89.504-205.072-199.584-205.072S312.96 265.776 312.96 375.856h-84.992c0-156.944 127.744-284.576 284.576-284.576z m-96.512 446.336c-1.632 31.392-29.184 58.944-60.576 60.592-36.592 1.936-66.624-30.432-64.848-67.024 1.664-31.392 27.152-56.896 58.4-58.4 36.608-1.92 68.816 28.224 67.024 64.832z m322.288 0.128c-1.664 31.392-29.328 59.216-60.72 60.72-36.752 1.92-66.912-30.432-64.992-67.168 1.648-31.392 27.136-57.024 58.544-58.544 36.72-1.888 69.072 28.256 67.168 64.992zM961.472 576a483.152 483.152 0 0 1-104.592 155.04 487.52 487.52 0 0 1-155.024 104.592 484.288 484.288 0 0 1-189.968 38.384c-65.808 0-129.824-12.896-190-38.384a483.776 483.776 0 0 1-155.024-104.592A486.656 486.656 0 0 1 62.384 576 484.384 484.384 0 0 1 24 386c0-65.776 12.896-129.808 38.384-189.984a483.168 483.168 0 0 1 104.592-155.024 487.648 487.648 0 0 1 155.04-104.608 484.256 484.256 0 0 1 190-38.368c65.776 0 129.808 12.896 189.984 38.368a484.864 484.864 0 0 1 130.096 81.312l-60.336 60.32c-72.64-61.424-163.536-94.88-259.744-94.88-107.616 0-208.768 41.952-284.992 118.032C150.928 177.216 108.992 278.4 108.992 386.144s41.952 208.768 118.016 284.992C303.088 747.2 404.256 789.136 512 789.136S720.784 747.2 796.992 671.12c76.08-76.08 118.016-177.232 118.016-284.992 0-75.536-20.688-147.76-59.216-210.544l61.424-61.424a488.992 488.992 0 0 1 44.416 82.112A484.368 484.368 0 0 1 1000 386.272 486.464 486.464 0 0 1 961.472 576z"  horiz-adv-x="1024" />

    
    <glyph glyph-name="qinzi" unicode="&#58630;" d="M964.608 553.9839999999999c-20.48 53.248-47.104 100.352-83.968 143.36-18.432 22.528-51.2 24.576-71.68 6.144-22.528-18.432-24.576-51.2-6.144-71.68 57.344-69.632 90.112-155.648 90.112-245.76 0-210.944-172.032-380.928-380.928-380.928-210.944 0-380.928 172.032-380.928 380.928 0 210.944 172.032 380.928 380.928 380.928 61.44 0 118.784-14.336 172.032-40.96 24.576-12.288 55.296-2.048 69.632 22.528 12.288 24.576 2.048 55.296-22.528 69.632-67.584 34.816-141.312 51.2-217.088 51.2-65.536 0-129.024-12.288-188.416-38.912-57.344-24.576-108.544-59.392-153.6-104.448-45.056-45.056-79.872-96.256-104.448-153.6-24.576-59.392-38.912-122.88-38.912-188.416 0-65.536 12.288-129.024 38.912-188.416 24.576-57.344 59.392-108.544 104.448-153.6 45.056-45.056 96.256-79.872 153.6-104.448 59.392-24.576 122.88-38.912 188.416-38.912s129.024 12.288 188.416 38.912c57.344 24.576 108.544 59.392 153.6 104.448 45.056 45.056 79.872 96.256 104.448 153.6 24.576 59.392 38.912 122.88 38.912 188.416-4.096 59.392-14.336 114.688-34.816 169.984zM487.424 386.048c8.192-6.144 16.384-14.336 24.576-20.48 6.144-6.144 14.336-12.288 22.528-16.384 4.096-2.048 10.24-2.048 14.336 0 4.096 2.048 2.048 8.192 0 12.288-18.432 38.912-40.96 75.776-75.776 102.4-16.384 12.288-32.768 20.48-51.2 26.624-22.528 6.144-45.056 8.192-67.584 6.144-16.384-2.048-32.768-6.144-47.104-14.336-28.672-12.288-51.2-30.72-71.68-53.248-16.384-18.432-32.768-38.912-40.96-63.488-4.096-12.288-10.24-24.576-8.192-38.912 0-2.048 2.048-6.144 4.096-8.192 2.048-2.048 6.144 0 8.192 2.048 2.048 2.048 6.144 4.096 8.192 6.144 14.336 16.384 28.672 32.768 45.056 49.152 8.192 8.192 18.432 12.288 28.672 18.432 6.144 2.048 8.192 0 10.24-6.144 0-2.048 2.048-6.144 2.048-8.192 0-26.624 2.048-51.2 2.048-77.824 2.048-16.384 4.096-32.768 6.144-47.104 6.144-32.768 16.384-65.536 34.816-94.208 4.096-8.192 10.24-14.336 16.384-22.528h6.144c6.144 4.096 10.24 10.24 6.144 16.384v2.048c0 16.384-2.048 32.768-2.048 51.2 0 6.144 0 10.24 2.048 16.384 4.096 12.288 14.336 18.432 26.624 14.336 14.336-4.096 24.576-14.336 36.864-24.576 18.432-16.384 36.864-34.816 55.296-51.2 10.24-8.192 22.528-14.336 34.816-18.432 8.192-2.048 12.288 2.048 8.192 10.24 0 2.048-2.048 4.096-2.048 4.096-12.288 14.336-22.528 30.72-34.816 45.056-22.528 32.768-40.96 65.536-45.056 104.448-2.048 22.528-2.048 45.056 8.192 67.584 6.144 18.432 18.432 22.528 34.816 10.24zM788.48 297.98400000000004c18.432 14.336 38.912 24.576 51.2 45.056v10.24c-6.144 6.144-12.288 4.096-20.48 2.048-18.432-8.192-34.816-16.384-53.248-22.528-36.864-14.336-77.824-20.48-118.784-20.48h-28.672c-8.192 0-14.336 0-22.528 2.048-14.336 0-30.72 2.048-45.056 2.048-4.096 0-8.192-2.048-6.144-8.192 0-4.096 2.048-8.192 6.144-10.24 6.144-4.096 12.288-10.24 20.48-12.288 14.336-6.144 30.72-12.288 45.056-16.384 18.432-6.144 22.528-14.336 22.528-30.72s0-32.768 4.096-49.152c2.048-14.336 6.144-28.672 16.384-38.912 4.096-4.096 8.192-6.144 12.288-6.144 6.144 2.048 6.144 6.144 6.144 12.288 0 4.096 0 8.192 2.048 10.24 4.096 24.576 24.576 34.816 47.104 24.576 16.384-8.192 24.576-22.528 30.72-38.912 2.048-4.096 2.048-6.144 8.192-6.144 6.144 0 6.144 4.096 8.192 8.192 4.096 16.384 2.048 32.768 0 47.104-2.048 14.336-6.144 28.672-10.24 43.008-4.096 22.528 8.192 38.912 24.576 53.248zM360.448 539.648c14.336-14.336 32.768-20.48 53.248-20.48 12.288 0 24.576 6.144 32.768 14.336 16.384 18.432 22.528 38.912 20.48 63.488-4.096 36.864-45.056 61.44-79.872 51.2-26.624-8.192-45.056-34.816-45.056-61.44-2.048-18.432 4.096-34.816 18.432-47.104zM684.032 328.70399999999995c30.72-2.048 55.296 18.432 55.296 49.152 2.048 30.72-30.72 61.44-65.536 49.152-16.384-6.144-28.672-16.384-34.816-30.72-8.192-18.432-8.192-34.816 8.192-51.2 8.192-10.24 22.528-16.384 36.864-16.384z"  horiz-adv-x="1024" />

    
    <glyph glyph-name="meifa" unicode="&#59227;" d="M876.416 66.624c12.032 6.976 23.296 9.088 33.728 6.144a55.488 55.488 0 0 0 26.944-17.024 96 96 0 0 0 18.048-31.232c4.48-12.288 6.592-24.768 6.592-37.504 0-12.672-2.432-24.32-7.04-35.072a46.592 46.592 0 0 0-22.4-23.744c-1.216-5.12-9.984-9.856-26.432-14.272-13.888-3.84-36.032-7.296-66.368-10.432s-73.6-4.352-129.92-3.84a172.8 172.8 0 0 0-24.64-0.448 302.208 302.208 0 0 0-95.36 19.008 171.904 171.904 0 0 0-48.832 27.52 127.552 127.552 0 0 0-35.072 45.056c-8.832 18.304-12.416 40.768-10.432 67.392a154.624 154.624 0 0 1-8.96 29.44 88.96 88.96 0 0 0-5.76 35.52c0.384 13.568 4.8 29.44 13.312 47.488 8.576 18.048 25.152 39.36 49.792 64 9.536 15.872 12.992 29.824 10.432 41.728-1.856 10.752-9.344 20.288-22.336 28.48-12.992 8.192-36.48 12.288-70.656 12.288-35.968 2.56-65.152 11.072-87.296 25.6a126.208 126.208 0 0 0-26.048 23.232 78.592 78.592 0 0 0-16.512 34.624 143.68 143.68 0 0 0-1.408 48.384c2.176 18.304 8.64 39.488 19.456 63.616 3.136 21.504 1.28 39.808-5.696 55.04-3.136 6.336-7.296 12.16-12.288 17.536a58.88 58.88 0 0 1-19.84 13.312 88.96 88.96 0 0 1-30.4 6.144 167.296 167.296 0 0 1-43.648-4.736c1.28-6.4 1.856-13.568 1.856-21.76 0-6.976-0.32-15.872-0.896-26.56-0.64-10.752-2.56-23.04-5.76-36.928-3.776-14.592-7.04-26.944-9.92-37.504-2.88-10.432-6.592-19.84-11.328-28.032a97.408 97.408 0 0 0-19.904-23.68c-8.576-7.68-20.736-15.872-36.48-24.704a39.296 39.296 0 0 1 17.152-17.92c6.912-3.2 15.04-6.016 24.192-8.576 9.152-2.56 14.72-6.4 16.512-11.392 1.28-2.56 1.28-5.312 0-8.512s-2.624-6.528-4.224-9.984a215.296 215.296 0 0 1-4.288-9.984c-1.28-3.136-1.664-5.632-0.96-7.68 1.28-3.776 3.136-5.952 5.696-6.528 2.56-0.64 3.84-1.664 3.84-2.88-0.64 0-1.28-0.384-1.92-0.96a16.64 16.64 0 0 1-2.88-3.84c-1.856-3.84-2.304-6.592-1.344-8.512a18.304 18.304 0 0 1 3.328-4.8c1.28-1.28 2.88-2.624 4.736-4.288a8.896 8.896 0 0 0 2.88-7.04c-3.072-13.888-3.84-26.496-1.792-37.952a64 64 0 0 1 10.88-27.584c6.016-8.768 16.32-13.888 30.72-15.168h161.344c15.872-30.336 26.88-61.568 33.28-93.888 2.56-13.888 3.84-28.48 4.224-43.648 0.384-15.168-1.152-30.848-4.288-47.04a195.84 195.84 0 0 0-46.4-94.4 202.24 202.24 0 0 0-64.512-23.68 280.32 280.32 0 0 0-70.656-2.944c-26.88 1.92-56.128 10.816-87.68 26.56-12.672-8.832-24.32-12.992-35.2-12.288-9.408 0-18.56 4.608-27.52 13.76-8.768 9.152-15.872 27.008-20.8 53.632-15.872 16.448-25.024 32-27.52 46.4a42.112 42.112 0 0 0 0.384 19.008 37.632 37.632 0 0 0 11.84 18.048c6.4 5.76 15.168 11.136 26.496 16.128 11.328 5.12 26.24 9.152 44.608 12.288 15.872 10.048 24.96 20.8 27.52 32.256 2.56 10.112-1.6 21.76-12.352 35.136-10.816 13.312-34.56 28.16-71.104 44.544-36.032 22.144-60.48 48.384-73.088 78.72a120.576 120.576 0 0 0-9.92 42.752c-0.96 15.872 2.048 33.28 8.96 52.224 7.04 19.008 18.56 39.488 34.688 61.696 16.064 22.144 38.656 45.504 67.84 70.208a60.928 60.928 0 0 1 17.024 18.944c3.84 6.976 6.912 15.68 9.472 26.048 2.56 10.432 2.88 23.296 0.96 38.464-17.024 32.32-26.304 62.912-27.52 92.032a140.544 140.544 0 0 0 3.328 37.568c2.88 12.928 8.32 25.216 16.512 36.928a120.96 120.96 0 0 0 34.176 31.744c14.592 9.472 33.472 17.28 56.96 23.68 16.448 11.392 32.896 19.392 49.28 23.744 14.656 3.84 29.952 4.736 46.08 2.944 16-1.92 30.72-10.816 44.032-26.56a404.8 404.8 0 0 0 101.568 25.6A249.024 249.024 0 0 0 570.048 839.04c15.488-3.84 30.336-9.472 44.544-17.024 14.272-7.68 27.712-18.048 40.32-31.296 39.232-1.856 73.6-14.784 103.424-38.848 12.608-10.112 24.768-23.296 36.48-39.424 11.648-16.064 21.952-35.968 30.72-59.712 8.832-23.744 15.552-51.648 19.968-83.968s5.696-69.568 3.84-112c41.664-41.088 72.128-81.472 91.008-121.408 8.192-17.024 14.208-35.008 18.048-53.632 3.84-18.624 3.968-37.12 0.448-55.424a134.016 134.016 0 0 0-24.64-54.08c-12.992-17.728-32.064-34.176-57.408-49.344-16.448-1.856-30.72-6.4-42.752-13.312-10.752-5.696-20.608-14.08-29.44-25.152-8.768-11.072-12.608-26.048-11.328-45.056a61.696 61.696 0 0 1 3.84-27.52 50.048 50.048 0 0 1 16.064-19.008c7.68-5.632 19.584-8.768 36.032-9.472 3.84 4.416 6.592 8.192 8.576 11.328a14.528 14.528 0 0 1 0.896 9.024c-0.576 2.88-3.84 5.568-9.472 8.128a50.56 50.56 0 0 0-2.88 24.64 34.56 34.56 0 0 0 7.68 19.008c3.968 5.568 11.648 9.344 22.4 11.2-0.576 0-0.448 0.128 0.448 0.512 0.96 0.32 0.832 0.192-0.448-0.512z"  horiz-adv-x="1024" />

    
    <glyph glyph-name="xiuxianyule" unicode="&#58920;" d="M605.974684 443.949367H311.898734v-176.607595c0-46.177215 45.367089-47.797468 50.227848-47.797468h194.43038c48.607595 3.240506 49.417722 48.607595 48.607595 57.518987V443.949367zM692.658228 389.670886h-46.987342v-90.734177H690.227848c40.506329 0 43.746835 27.544304 43.746836 36.455696 0.810127 19.443038-3.240506 34.025316-12.151899 42.936709-9.721519 10.531646-25.924051 11.341772-29.164557 11.341772zM509.56962 863.594937C242.227848 863.594937 25.924051 647.291139 25.924051 379.949367s216.303797-483.64557 483.645569-483.64557 483.64557 216.303797 483.64557 483.64557S776.911392 863.594937 509.56962 863.594937z m4.050633-237.367089h40.506329v-128h-40.506329V626.227848z m-74.531645 0h40.506329v-128h-40.506329V626.227848z m-75.341773 0h40.50633v-128h-40.50633V626.227848zM653.772152 126.379747H264.101266c-11.341772 0-20.253165 8.911392-20.253165 21.063291 0 11.341772 8.911392 21.063291 20.253165 21.063291h388.860759c11.341772 0 20.253165-8.911392 20.253165-21.063291s-8.101266-21.063291-19.443038-21.063291z m103.696202 159.594937c-10.531646-12.962025-30.78481-28.35443-67.240506-28.354431h-46.177215c-2.43038-14.582278-8.101266-34.025316-21.873418-50.227848-15.392405-17.822785-37.265823-27.544304-64-29.164557H362.936709c-31.594937 0-90.734177 18.632911-90.734177 89.113924V485.265823h373.468354v-54.278481h46.987342c8.101266 0 35.64557-1.620253 57.518987-23.493671 17.012658-17.012658 25.113924-41.316456 24.303798-72.911393 0-6.481013-0.810127-28.35443-17.012659-48.607594zM311.898734 583.291139h293.265823v78.582279c0 21.063291-45.367089 21.063291-50.227848 21.063291H361.316456c-48.607595-0.810127-49.417722-21.063291-48.607595-25.924051l-0.810127-73.721519z"  horiz-adv-x="1024" />

    
    <glyph glyph-name="weibiaoti-1" unicode="&#58634;" d="M511.936318 896A512 512 0 0 1 0 384 512 512 0 1 1 511.936318 896z m319.936319-576H192A63.872637 63.872637 0 0 0 128 384c0 35.406965 28.529353 63.936318 64 63.936318h639.872637c35.470647 0 64-28.593035 64-63.936318 0-35.406965-28.529353-64-64-64z m0 0"  horiz-adv-x="1029" />

    
    <glyph glyph-name="arrow-right-" unicode="&#58915;" d="M268.501333-12.501333a42.666667 42.666667 0 0 1 60.330667-60.330667l426.666667 426.666667a42.666667 42.666667 0 0 1 0 60.330666l-426.666667 426.666667a42.666667 42.666667 0 0 1-60.330667-60.330667L665.002667 384 268.501333-12.501333z"  horiz-adv-x="1024" />

    
    <glyph glyph-name="arrow-down-" unicode="&#58916;" d="M115.498667 627.498667a42.666667 42.666667 0 0 1-60.330667-60.330667l426.666667-426.666667a42.666667 42.666667 0 0 1 60.330666 0l426.666667 426.666667a42.666667 42.666667 0 0 1-60.330667 60.330667L512 230.997333 115.498667 627.498667z"  horiz-adv-x="1024" />

    
    <glyph glyph-name="arrow-left-" unicode="&#58917;" d="M755.498667 780.501333a42.666667 42.666667 0 0 1-60.330667 60.330667l-426.666667-426.666667a42.666667 42.666667 0 0 1 0-60.330666l426.666667-426.666667a42.666667 42.666667 0 0 1 60.330667 60.330667L358.997333 384 755.498667 780.501333z"  horiz-adv-x="1024" />

    
    <glyph glyph-name="arrow-up-" unicode="&#58918;" d="M908.501333 140.501333a42.666667 42.666667 0 0 1 60.330667 60.330667l-426.666667 426.666667a42.666667 42.666667 0 0 1-60.330666 0l-426.666667-426.666667a42.666667 42.666667 0 0 1 60.330667-60.330667L512 537.002667l396.501333-396.501334z"  horiz-adv-x="1024" />

    
    <glyph glyph-name="arrow-left-1" unicode="&#58919;" d="M780.288 128.917333c40.405333-40.725333 40.512-106.645333 0.192-147.264l-36.096-36.373333a103.36 103.36 0 0 0-146.944 0.085333L249.685333 295.786667a125.290667 125.290667 0 0 0 0 176.490666L597.44 822.677333a103.466667 103.466667 0 0 0 146.944 0.085334l36.096-36.352c40.362667-40.682667 40.192-106.56-0.192-147.264L527.104 384.021333l253.184-255.104zM436.693333 353.984a42.666667 42.666667 0 0 0 0 60.096L719.722667 699.264a19.328 19.328 0 0 1 0.192 27.029333l-36.096 36.352a18.154667 18.154667 0 0 1-25.813334-0.064L310.250667 412.16a39.957333 39.957333 0 0 1 0-56.256l347.754666-350.421333a18.026667 18.026667 0 0 1 25.813334-0.085334l36.096 36.373334a19.349333 19.349333 0 0 1-0.192 27.029333L436.693333 353.962667z"  horiz-adv-x="1024" />

    
    <glyph glyph-name="arrow-right-1" unicode="&#58921;" d="M304.085333 41.770667l36.096-36.373334a18.026667 18.026667 0 0 1 25.813334 0.085334l347.754666 350.421333a39.957333 39.957333 0 0 1 0 56.256L365.994667 762.581333a18.154667 18.154667 0 0 1-25.813334 0.064l-36.096-36.352a19.328 19.328 0 0 1 0.192-27.029333L587.306667 414.08a42.666667 42.666667 0 0 0 0-60.117333L304.277333 68.8a19.349333 19.349333 0 0 1-0.192-27.029333zM496.896 384L243.712 639.146667c-40.384 40.682667-40.533333 106.56-0.192 147.242666l36.096 36.352a103.466667 103.466667 0 0 0 146.944-0.085333l347.754667-350.4a125.290667 125.290667 0 0 0 0-176.490667L426.56-54.634667a103.36 103.36 0 0 0-146.944-0.085333l-36.096 36.373333c-40.32 40.618667-40.213333 106.538667 0.192 147.264L496.896 384z"  horiz-adv-x="1024" />

    
    <glyph glyph-name="gerenzhongxin" unicode="&#58891;" d="M512 298.666667a277.333333 277.333333 0 1 0 277.333333 277.333333 277.333333 277.333333 0 0 0-277.333333-277.333333z m0 469.333333a192 192 0 1 1 192-192 192 192 0 0 1-192 192zM512 426.666667a149.333333 149.333333 0 0 0-105.6 42.666666 42.666667 42.666667 0 0 0 60.373333 60.373334 65.706667 65.706667 0 0 1 90.453334 0A42.666667 42.666667 0 0 0 618.666667 469.333333a149.333333 149.333333 0 0 0-106.666667-42.666666zM832-85.333333H192a128 128 0 0 0-125.013333 155.733333A397.866667 397.866667 0 0 0 457.6 384h108.8a397.866667 397.866667 0 0 0 390.826667-313.6A128 128 0 0 0 832-85.333333zM457.6 298.666667A313.6 313.6 0 0 1 149.333333 51.84 42.666667 42.666667 0 0 1 192 0h640a42.666667 42.666667 0 0 1 42.666667 51.84A313.6 313.6 0 0 1 566.4 298.666667z"  horiz-adv-x="1024" />

    
    <glyph glyph-name="shanchu" unicode="&#58894;" d="M938.666667 533.333333H85.333333a42.666667 42.666667 0 0 0 0 85.333334h853.333334a42.666667 42.666667 0 0 0 0-85.333334zM810.666667 533.333333H213.333333v42.666667A277.333333 277.333333 0 0 0 490.666667 853.333333h42.666666a277.333333 277.333333 0 0 0 277.333334-277.333333z m-507.306667 85.333334h417.28A192 192 0 0 1 533.333333 768h-42.666666a192 192 0 0 1-187.306667-149.333333zM768-85.333333H256a128 128 0 0 0-128 128V618.666667h768v-576a128 128 0 0 0-128-128zM213.333333 533.333333v-490.666666a42.666667 42.666667 0 0 1 42.666667-42.666667h512a42.666667 42.666667 0 0 1 42.666667 42.666667V533.333333zM373.333333 85.333333a42.666667 42.666667 0 0 0-42.666666 42.666667V405.333333a42.666667 42.666667 0 0 0 85.333333 0v-277.333333a42.666667 42.666667 0 0 0-42.666667-42.666667zM650.666667 85.333333a42.666667 42.666667 0 0 0-42.666667 42.666667V405.333333a42.666667 42.666667 0 0 0 85.333333 0v-277.333333a42.666667 42.666667 0 0 0-42.666666-42.666667z"  horiz-adv-x="1024" />

    
    <glyph glyph-name="dianzan" unicode="&#58897;" d="M277.333333-85.333333a42.666667 42.666667 0 0 0-42.666666 42.666666V490.666667a42.666667 42.666667 0 0 0 85.333333 0v-533.333334a42.666667 42.666667 0 0 0-42.666667-42.666666zM734.933333-85.333333H170.666667a128 128 0 0 0-128 128V405.333333a128 128 0 0 0 128 128h94.933333l27.946667 16.426667A199.68 199.68 0 0 1 391.04 704a164.693333 164.693333 0 1 0 325.546667-47.36L692.053333 533.333333h232.96a85.333333 85.333333 0 0 0 82.133334-108.373333l-107.946667-385.706667a170.666667 170.666667 0 0 0-164.266667-124.586666zM170.666667 448a42.666667 42.666667 0 0 1-42.666667-42.666667v-362.666666a42.666667 42.666667 0 0 1 42.666667-42.666667h564.266666a85.333333 85.333333 0 0 1 82.133334 62.293333L925.013333 448H692.053333a85.333333 85.333333 0 0 0-83.626666 101.973333l24.533333 123.093334a79.36 79.36 0 1 1-157.013333 22.613333 285.653333 285.653333 0 0 0-139.093334-219.52l-27.946666-16.426667a85.333333 85.333333 0 0 0-42.666667-11.733333z"  horiz-adv-x="1024" />

    
    <glyph glyph-name="pinglun" unicode="&#58898;" d="M512-60.373333a85.333333 85.333333 0 0 0-66.133333 31.573333l-80 98.346667A42.666667 42.666667 0 0 1 332.8 85.333333H170.666667a128 128 0 0 0-128 128V682.666667a128 128 0 0 0 128 128h682.666666a128 128 0 0 0 128-128v-469.333334a128 128 0 0 0-128-128h-162.133333a42.666667 42.666667 0 0 1-33.066667-15.786666l-80-98.346667a85.333333 85.333333 0 0 0-66.133333-31.573333zM170.666667 725.333333a42.666667 42.666667 0 0 1-42.666667-42.666666v-469.333334a42.666667 42.666667 0 0 1 42.666667-42.666666h162.133333a128 128 0 0 0 99.2-47.36L512 24.96l80 98.346667A128 128 0 0 0 691.2 170.666667H853.333333a42.666667 42.666667 0 0 1 42.666667 42.666666V682.666667a42.666667 42.666667 0 0 1-42.666667 42.666666zM725.333333 522.666667H298.666667a42.666667 42.666667 0 0 0 0 85.333333h426.666666a42.666667 42.666667 0 0 0 0-85.333333zM725.333333 288H298.666667a42.666667 42.666667 0 0 0 0 85.333333h426.666666a42.666667 42.666667 0 0 0 0-85.333333z"  horiz-adv-x="1024" />

    
    <glyph glyph-name="xiaoxi" unicode="&#58899;" d="M853.333333 0H170.666667a128 128 0 0 0-128 128V640a128 128 0 0 0 128 128h682.666666a128 128 0 0 0 128-128v-512a128 128 0 0 0-128-128zM170.666667 682.666667a42.666667 42.666667 0 0 1-42.666667-42.666667v-512a42.666667 42.666667 0 0 1 42.666667-42.666667h682.666666a42.666667 42.666667 0 0 1 42.666667 42.666667V640a42.666667 42.666667 0 0 1-42.666667 42.666667zM282.666667 384m-85.333334 0a85.333333 85.333333 0 1 1 170.666667 0 85.333333 85.333333 0 1 1-170.666667 0ZM512 384m-85.333333 0a85.333333 85.333333 0 1 1 170.666666 0 85.333333 85.333333 0 1 1-170.666666 0ZM741.333333 384m-85.333333 0a85.333333 85.333333 0 1 1 170.666667 0 85.333333 85.333333 0 1 1-170.666667 0Z"  horiz-adv-x="1024" />

    
    <glyph glyph-name="yuyin" unicode="&#58900;" d="M512 234.666667a213.333333 213.333333 0 0 0-213.333333 213.333333v192a213.333333 213.333333 0 0 0 426.666666 0v-192a213.333333 213.333333 0 0 0-213.333333-213.333333z m0 533.333333a128 128 0 0 1-128-128v-192a128 128 0 0 1 256 0v192a128 128 0 0 1-128 128zM512 448m-64 0a64 64 0 1 1 128 0 64 64 0 1 1-128 0ZM512 85.333333A341.333333 341.333333 0 0 0 170.666667 426.666667v42.666666a42.666667 42.666667 0 0 0 85.333333 0v-42.666666a256 256 0 0 1 512 0v42.666666a42.666667 42.666667 0 0 0 85.333333 0v-42.666666a341.333333 341.333333 0 0 0-341.333333-341.333334zM512-85.333333a42.666667 42.666667 0 0 0-42.666667 42.666666v170.666667a42.666667 42.666667 0 0 0 85.333334 0v-170.666667a42.666667 42.666667 0 0 0-42.666667-42.666666z"  horiz-adv-x="1024" />

    
    <glyph glyph-name="gouwuche" unicode="&#58907;" d="M298.666667 0m-64 0a64 64 0 1 1 128 0 64 64 0 1 1-128 0ZM810.666667 0m-64 0a64 64 0 1 1 128 0 64 64 0 1 1-128 0ZM780.8 85.333333H330.666667c-64 0-119.466667 46.933333-125.866667 110.933334L134.4 725.333333H64c-23.466667 0-42.666667 19.2-42.666667 42.666667s19.2 42.666667 42.666667 42.666667h70.4c42.666667 0 78.933333-32 85.333333-74.666667l2.133334-32h616.533333c70.4 0 128-57.6 128-128 0-6.4 0-14.933333-2.133333-21.333333l-57.6-362.666667c-10.666667-61.866667-64-106.666667-125.866667-106.666667zM234.666667 618.666667l55.466666-411.733334c2.133333-21.333333 21.333333-36.266667 42.666667-36.266666h448c21.333333 0 38.4 14.933333 42.666667 36.266666l57.6 362.666667c4.266667 23.466667-12.8 44.8-36.266667 49.066667H234.666667zM725.333333 213.333333H384c-23.466667 0-42.666667 19.2-42.666667 42.666667s19.2 42.666667 42.666667 42.666667h341.333333c23.466667 0 42.666667-19.2 42.666667-42.666667s-19.2-42.666667-42.666667-42.666667z"  horiz-adv-x="1024" />

    
    <glyph glyph-name="zhanghao" unicode="&#58922;" d="M512-85.333333c-23.466667 0-42.666667 19.2-42.666667 42.666666v192c0 23.466667 19.2 42.666667 42.666667 42.666667s42.666667-19.2 42.666667-42.666667v-192c0-23.466667-19.2-42.666667-42.666667-42.666666zM512 298.666667c-153.6 0-277.333333 123.733333-277.333333 277.333333S358.4 853.333333 512 853.333333s277.333333-123.733333 277.333333-277.333333-123.733333-277.333333-277.333333-277.333333z m0 469.333333c-106.666667 0-192-85.333333-192-192s85.333333-192 192-192 192 85.333333 192 192-85.333333 192-192 192zM832-85.333333H192c-70.4 0-128 57.6-128 128 0 8.533333 0 19.2 2.133333 27.733333C106.666667 253.866667 268.8 384 458.666667 384h108.8c187.733333 0 352-130.133333 390.4-313.6 14.933333-68.266667-27.733333-136.533333-98.133334-153.6-8.533333-2.133333-19.2-2.133333-27.733333-2.133333zM458.666667 298.666667c-147.2 0-277.333333-102.4-309.333334-247.466667-4.266667-23.466667 8.533333-44.8 32-51.2H832c23.466667 0 42.666667 17.066667 42.666667 42.666667v10.666666C842.666667 196.266667 714.666667 298.666667 565.333333 298.666667h-106.666666z"  horiz-adv-x="1024" />

    
    <glyph glyph-name="xingzhuang" unicode="&#59467;" d="M431.633655 808.041931a80.366345 80.366345 0 1 1 160.697379 0 80.366345 80.366345 0 1 1-160.732689 0h0.03531zM119.966897 675.310345a78.035862 78.035862 0 1 1 156.071724 0 78.035862 78.035862 0 1 1-156.071724 0zM1.182897 381.846069a71.044414 71.044414 0 0 1 142.088827 0 71.044414 71.044414 0 0 1-142.088827 0z m125.775448-320.211862a61.722483 61.722483 0 0 1 123.444965 0 61.722483 61.722483 0 0 1-123.444965 0z m333.806345-133.755586a53.707034 53.707034 0 0 1 107.414069 0 53.707034 53.707034 0 0 1-107.414069 0z m345.829517 123.233103a38.488276 38.488276 0 1 1 76.976552 0 38.488276 38.488276 0 1 1-76.976552 0z m160.114759 332.199724a27.277241 27.277241 0 1 1 54.554482 0 27.277241 27.277241 0 1 1-54.554482 0z m-81.937656 286.102069a19.473655 19.473655 0 0 1 38.964966 0 19.473655 19.473655 0 0 1-38.964966 0z"  horiz-adv-x="1024" />

    


  </font>
</defs>
</svg>
